<?xml version="1.0" encoding="utf-8"?>
<!-- Generator: Adobe Illustrator 15.0.2, SVG Export Plug-In . SVG Version: 6.00 Build 0)  -->
<!DOCTYPE svg PUBLIC "-//W3C//DTD SVG 1.1//EN" "http://www.w3.org/Graphics/SVG/1.1/DTD/svg11.dtd">
<svg version="1.1" id="Calque_1" xmlns="http://www.w3.org/2000/svg" xmlns:xlink="http://www.w3.org/1999/xlink" x="0px" y="0px"
	 width="36px" height="684px" viewBox="0 0 36 684" enable-background="new 0 0 36 684" xml:space="preserve">
<g>
	<g opacity="0.2">
		<path fill="#F44336" d="M18.001,17c0.551,0,1,0.449,1,1s-0.449,1-1,1s-1-0.449-1-1S17.45,17,18.001,17 M18.001,16
			c-1.104,0-2,0.896-2,2c0,1.104,0.896,2,2,2s2-0.896,2-2C20.001,16.896,19.104,16,18.001,16L18.001,16z"/>
	</g>
	<g opacity="0.4">
		<path fill="#F44336" d="M18.001,52c1.104,0,2,0.896,2,2c0,1.103-0.896,2-2,2s-2-0.897-2-2C16.001,52.897,16.897,52,18.001,52
			 M18.001,51c-1.656,0-3,1.344-3,3c0,1.655,1.344,3,3,3c1.657,0,3-1.345,3-3C21.001,52.344,19.658,51,18.001,51L18.001,51z"/>
	</g>
	<g opacity="0.6">
		<path fill="#F44336" d="M18.001,87c1.654,0,3,1.346,3,3c0,1.653-1.346,3-3,3s-3-1.347-3-3C15.001,88.346,16.347,87,18.001,87
			 M18.001,86c-2.21,0-4,1.792-4,4s1.79,4,4,4s4-1.792,4-4S20.211,86,18.001,86L18.001,86z"/>
	</g>
	<g opacity="0.8">
		<path fill="#F44336" d="M18.001,122c2.206,0,4,1.794,4,4s-1.794,4-4,4c-2.205,0-4-1.794-4-4S15.796,122,18.001,122 M18.001,121
			c-2.763,0-5,2.238-5,5c0,2.759,2.237,5,5,5c2.764,0,5-2.241,5-5C23.001,123.24,20.763,121,18.001,121L18.001,121z"/>
	</g>
	<g>
		<path fill="#F44336" d="M18.001,157c2.758,0,5,2.242,5,5c0,2.757-2.242,5-5,5c-2.757,0-5-2.243-5-5
			C13.001,159.242,15.244,157,18.001,157 M18.001,156c-3.314,0-6,2.687-6,6c0,3.312,2.686,6,6,6c3.315,0,6-2.688,6-6
			C24.001,158.687,21.316,156,18.001,156L18.001,156z"/>
	</g>
	<g>
		<path fill="#F44336" d="M18.001,192c3.309,0,6,2.69,6,6c0,3.309-2.691,6-6,6s-6-2.691-6-6C12.001,194.691,14.692,192,18.001,192
			 M18.001,191c-3.867,0-7,3.134-7,7c0,3.863,3.133,7,7,7c3.868,0,7-3.137,7-7C25.001,194.134,21.869,191,18.001,191L18.001,191z"/>
	</g>
	<g>
		<path fill="#F44336" d="M18.001,227c3.86,0,7,3.141,7,7c0,3.858-3.14,7-7,7c-3.859,0-7-3.142-7-7
			C11.001,230.141,14.142,227,18.001,227 M18.001,226c-4.421,0-8,3.58-8,8c0,4.416,3.579,8,8,8c4.422,0,8-3.584,8-8
			C26.001,229.58,22.423,226,18.001,226L18.001,226z"/>
	</g>
	<g>
		<path fill="#F44336" d="M18.001,262c4.411,0,8,3.589,8,8c0,4.41-3.589,8-8,8c-4.41,0-8-3.59-8-8
			C10.001,265.589,13.591,262,18.001,262 M18.001,261c-4.974,0-9,4.027-9,9c0,4.97,4.026,9,9,9c4.975,0,9-4.03,9-9
			C27.001,265.029,22.974,261,18.001,261L18.001,261z"/>
	</g>
	<g>
		<path fill="#F44336" d="M18.001,297c4.963,0,9,4.036,9,9c0,4.963-4.037,9-9,9s-9-4.037-9-9C9.001,301.036,13.038,297,18.001,297
			 M18.001,296c-5.525,0-10,4.476-10,10c0,5.521,4.475,10,10,10c5.526,0,10-4.479,10-10C28.001,300.476,23.527,296,18.001,296
			L18.001,296z"/>
	</g>
	<g>
		<path fill="#F44336" d="M18.001,332c5.514,0,10,4.485,10,10c0,5.514-4.486,10-10,10s-10-4.486-10-10
			C8.001,336.486,12.487,332,18.001,332 M18.001,331c-6.078,0-11,4.923-11,11c0,6.074,4.922,11,11,11c6.079,0,11-4.926,11-11
			C29.001,335.923,24.08,331,18.001,331L18.001,331z"/>
	</g>
	<g>
		<path fill="#F44336" d="M18.001,367c6.065,0,11,4.935,11,11c0,6.064-4.935,11-11,11c-6.064,0-11-4.936-11-11
			C7.001,371.935,11.935,367,18.001,367 M18.001,366c-6.632,0-12,5.369-12,12c0,6.628,5.368,12,12,12c6.633,0,12-5.372,12-12
			C30.001,371.369,24.634,366,18.001,366L18.001,366z"/>
	</g>
	<g>
		<path fill="#F44336" d="M18.001,402.5c6.342,0,11.5,5.158,11.5,11.5c0,6.341-5.158,11.5-11.5,11.5c-6.341,0-11.5-5.159-11.5-11.5
			C6.501,407.658,11.659,402.5,18.001,402.5 M18.001,401.5c-6.908,0-12.5,5.594-12.5,12.5c0,6.903,5.592,12.5,12.5,12.5
			s12.5-5.597,12.5-12.5C30.501,407.094,24.909,401.5,18.001,401.5L18.001,401.5z"/>
	</g>
	<g>
		<path fill="#F44336" d="M18.001,438c6.617,0,12,5.383,12,12c0,6.616-5.383,12-12,12s-12-5.384-12-12
			C6.001,443.383,11.384,438,18.001,438 M18.001,437c-7.185,0-13,5.816-13,13c0,7.181,5.815,13,13,13c7.186,0,13-5.819,13-13
			C31.001,442.818,25.185,437,18.001,437L18.001,437z"/>
	</g>
	<g>
		<path fill="#F44336" d="M18.001,473.5c6.893,0,12.5,5.606,12.5,12.5c0,6.893-5.607,12.5-12.5,12.5s-12.5-5.607-12.5-12.5
			C5.501,479.107,11.108,473.5,18.001,473.5 M18.001,472.5c-7.461,0-13.5,6.041-13.5,13.5c0,7.456,6.039,13.5,13.5,13.5
			s13.5-6.044,13.5-13.5C31.501,478.541,25.462,472.5,18.001,472.5L18.001,472.5z"/>
	</g>
	<g>
		<path fill="#F44336" d="M18.001,509c7.168,0,13,5.831,13,13c0,7.168-5.832,13-13,13s-13-5.832-13-13
			C5.001,514.831,10.833,509,18.001,509 M18.001,508c-7.736,0-14,6.265-14,14c0,7.732,6.264,14,14,14c7.737,0,14-6.268,14-14
			C32.001,514.265,25.738,508,18.001,508L18.001,508z"/>
	</g>
	<g>
		<path fill="#F44336" d="M18.001,544.5c7.444,0,13.5,6.056,13.5,13.5c0,7.443-6.056,13.5-13.5,13.5c-7.443,0-13.5-6.057-13.5-13.5
			C4.501,550.556,10.558,544.5,18.001,544.5 M18.001,543.5c-8.014,0-14.5,6.487-14.5,14.5c0,8.01,6.486,14.5,14.5,14.5
			s14.5-6.49,14.5-14.5C32.501,549.989,26.015,543.5,18.001,543.5L18.001,543.5z"/>
	</g>
	<g>
		<path fill="#F44336" d="M18.001,580c7.721,0,14,6.279,14,14c0,7.72-6.279,14-14,14c-7.72,0-14-6.28-14-14
			C4.001,586.28,10.281,580,18.001,580 M18.001,579c-8.29,0-15,6.712-15,15c0,8.285,6.71,15,15,15s15-6.715,15-15
			C33.001,585.712,26.291,579,18.001,579L18.001,579z"/>
	</g>
	<g>
		<path fill="#F44336" d="M18.001,615.5c7.995,0,14.5,6.505,14.5,14.5c0,7.994-6.505,14.5-14.5,14.5c-7.994,0-14.5-6.506-14.5-14.5
			C3.501,622.005,10.007,615.5,18.001,615.5 M18.001,614.5c-8.566,0-15.5,6.936-15.5,15.5c0,8.563,6.934,15.5,15.5,15.5
			s15.5-6.938,15.5-15.5C33.501,621.436,26.567,614.5,18.001,614.5L18.001,614.5z"/>
	</g>
	<g>
		<path fill="#F44336" d="M18.001,651c8.271,0,15,6.729,15,15c0,8.271-6.729,15-15,15s-15-6.729-15-15
			C3.001,657.729,9.729,651,18.001,651 M18.001,650c-8.843,0-16,7.158-16,16c0,8.839,7.157,16,16,16c8.844,0,16-7.161,16-16
			C34.001,657.158,26.845,650,18.001,650L18.001,650z"/>
	</g>
	<g opacity="0.8">
		<path fill="#F44336" d="M18.001,3c8.271,0,15,6.729,15,15c0,8.271-6.729,15-15,15s-15-6.729-15-15C3.001,9.729,9.729,3,18.001,3
			 M18.001,2c-8.843,0-16,7.159-16,16c0,8.839,7.157,16,16,16c8.844,0,16-7.161,16-16C34.001,9.159,26.845,2,18.001,2L18.001,2z"/>
	</g>
	<g opacity="0.6">
		<path fill="#F44336" d="M18.001,39c8.271,0,15,6.729,15,15c0,8.271-6.729,15-15,15s-15-6.729-15-15
			C3.001,45.729,9.729,39,18.001,39 M18.001,38c-8.843,0-16,7.159-16,16c0,8.839,7.157,16,16,16c8.844,0,16-7.161,16-16
			C34.001,45.159,26.845,38,18.001,38L18.001,38z"/>
	</g>
	<g opacity="0.4">
		<path fill="#F44336" d="M18.001,75c8.271,0,15,6.729,15,15c0,8.271-6.729,15-15,15s-15-6.729-15-15
			C3.001,81.729,9.729,75,18.001,75 M18.001,74c-8.843,0-16,7.159-16,16c0,8.839,7.157,16,16,16c8.844,0,16-7.161,16-16
			C34.001,81.159,26.845,74,18.001,74L18.001,74z"/>
	</g>
	<g opacity="0.2">
		<path fill="#F44336" d="M18.001,111c8.271,0,15,6.729,15,15c0,8.271-6.729,15-15,15s-15-6.729-15-15
			C3.001,117.729,9.729,111,18.001,111 M18.001,110c-8.843,0-16,7.158-16,16c0,8.838,7.157,16,16,16c8.844,0,16-7.162,16-16
			C34.001,117.158,26.845,110,18.001,110L18.001,110z"/>
	</g>
	<rect y="0" fill="#607D8B" fill-opacity="0" width="36" height="684"/>
</g>
</svg>
