<?xml version="1.0" encoding="utf-8"?>
<!-- Generator: Adobe Illustrator 15.0.2, SVG Export Plug-In . SVG Version: 6.00 Build 0)  -->
<!DOCTYPE svg PUBLIC "-//W3C//DTD SVG 1.1//EN" "http://www.w3.org/Graphics/SVG/1.1/DTD/svg11.dtd">
<svg version="1.1" id="Calque_1" xmlns="http://www.w3.org/2000/svg" xmlns:xlink="http://www.w3.org/1999/xlink" x="0px" y="0px"
	 width="36px" height="648px" viewBox="0 0 36 648" enable-background="new 0 0 36 648" xml:space="preserve">
<g>
	<g>
		<polygon fill="#4CAF50" points="27.925,15.92 27.925,20.922 27.925,20.999 27.925,25.998 8.08,25.998 8.08,20.999 8.08,20.922 
			8.08,15.92 3.001,15.92 3.001,20.922 3.001,20.999 3.001,25.998 3.001,31 33.001,31 33.001,25.998 33.001,20.999 33.001,20.922 
			33.001,15.92 		"/>
		<polygon fill="#4CAF50" points="20.539,11.036 20.539,10.998 20.539,3.498 15.464,3.498 15.464,10.998 15.464,11.036 
			10.832,11.036 18.001,19.455 25.173,11.036 		"/>
	</g>
	<g>
		<polygon fill="#4CAF50" points="27.925,51.92 27.925,56.922 27.925,56.999 27.925,61.998 8.08,61.998 8.08,56.999 8.08,56.922 
			8.08,51.92 3.001,51.92 3.001,56.922 3.001,56.999 3.001,61.998 3.001,67 33.001,67 33.001,61.998 33.001,56.999 33.001,56.922 
			33.001,51.92 		"/>
		<polygon fill="#4CAF50" points="20.539,48.285 20.539,48.25 20.539,40.75 15.462,40.75 15.462,48.25 15.462,48.285 10.828,48.285 
			18,56.704 25.173,48.285 		"/>
	</g>
	<g>
		<polygon fill="#4CAF50" points="27.925,87.92 27.925,92.922 27.925,92.999 27.925,97.998 8.08,97.998 8.08,92.999 8.08,92.922 
			8.08,87.92 3.001,87.92 3.001,92.922 3.001,92.999 3.001,97.998 3.001,103 33.001,103 33.001,97.998 33.001,92.999 33.001,92.922 
			33.001,87.92 		"/>
		<polygon fill="#4CAF50" points="20.539,85.537 20.539,85.499 20.539,77.999 15.462,77.999 15.462,85.499 15.462,85.537 
			10.828,85.537 18,93.953 25.173,85.537 		"/>
	</g>
	<g>
		<polygon fill="#4CAF50" points="27.925,123.92 27.925,128.922 27.925,128.999 27.925,133.998 8.08,133.998 8.08,128.999 
			8.08,128.922 8.08,123.92 3.001,123.92 3.001,128.922 3.001,128.999 3.001,133.998 3.001,139 33.001,139 33.001,133.998 
			33.001,128.999 33.001,128.922 33.001,123.92 		"/>
		<polygon fill="#4CAF50" points="20.539,122.786 20.539,122.748 20.539,115.248 15.462,115.248 15.462,122.748 15.462,122.786 
			10.828,122.786 18,131.205 25.173,122.786 		"/>
	</g>
	<g>
		<polygon fill="#4CAF50" points="27.925,159.92 27.925,164.922 27.925,164.998 27.925,169.997 8.08,169.997 8.08,164.998 
			8.08,164.922 8.08,159.92 3.001,159.92 3.001,164.922 3.001,164.998 3.001,169.997 3.001,175 33.001,175 33.001,169.997 
			33.001,164.998 33.001,164.922 33.001,159.92 		"/>
		<polygon fill="#4CAF50" points="20.539,160.034 20.539,160 20.539,152.5 15.462,152.5 15.462,160 15.462,160.034 10.828,160.034 
			18,168.453 25.173,160.034 		"/>
	</g>
	<g>
		<polygon fill="#4CAF50" points="27.925,195.92 27.925,200.922 27.925,200.998 27.925,205.997 8.08,205.997 8.08,200.998 
			8.08,200.922 8.08,195.92 3.001,195.92 3.001,200.922 3.001,200.998 3.001,205.997 3.001,211 33.001,211 33.001,205.997 
			33.001,200.998 33.001,200.922 33.001,195.92 		"/>
		<polygon fill="#4CAF50" points="20.539,196.034 20.539,196 20.539,188.5 15.462,188.5 15.462,196 15.462,196.034 10.828,196.034 
			18,204.453 25.173,196.034 		"/>
	</g>
	<g>
		<polygon fill="#4CAF50" points="27.925,231.92 27.925,236.922 27.925,236.998 27.925,241.997 8.08,241.997 8.08,236.998 
			8.08,236.922 8.08,231.92 3.001,231.92 3.001,236.922 3.001,236.998 3.001,241.997 3.001,247 33.001,247 33.001,241.997 
			33.001,236.998 33.001,236.922 33.001,231.92 		"/>
		<polygon fill="#4CAF50" points="20.539,232.034 20.539,232 20.539,224.5 15.462,224.5 15.462,232 15.462,232.034 10.828,232.034 
			18,240.453 25.173,232.034 		"/>
	</g>
	<g>
		<polygon fill="#4CAF50" points="27.925,267.922 27.925,272.92 27.925,273.002 27.925,278.004 8.08,278.004 8.08,273.002 
			8.08,272.92 8.08,267.922 3.001,267.922 3.001,272.92 3.001,273.002 3.001,278.004 3.001,283 33.001,283 33.001,278.004 
			33.001,273.002 33.001,272.92 33.001,267.922 		"/>
		<polygon fill="#4CAF50" points="20.539,266.784 20.539,266.75 20.539,259.248 15.462,259.248 15.462,266.75 15.462,266.784 
			10.828,266.784 18,275.202 25.173,266.784 		"/>
	</g>
	<g>
		<polygon fill="#4CAF50" points="27.925,303.924 27.925,308.92 27.925,309.002 27.925,314.004 8.08,314.004 8.08,309.002 
			8.08,308.92 8.08,303.924 3.001,303.924 3.001,308.92 3.001,309.002 3.001,314.004 3.001,319 33.001,319 33.001,314.004 
			33.001,309.002 33.001,308.92 33.001,303.924 		"/>
		<polygon fill="#4CAF50" points="20.539,302.784 20.539,302.752 20.539,295.252 15.462,295.252 15.462,302.752 15.462,302.784 
			10.828,302.784 18,311.202 25.173,302.784 		"/>
	</g>
	<g>
		<polygon fill="#4CAF50" points="27.925,339.918 27.925,344.92 27.925,345.002 27.925,349.997 8.08,349.997 8.08,345.002 
			8.08,344.92 8.08,339.918 3.001,339.918 3.001,344.92 3.001,345.002 3.001,349.997 3.001,355 33.001,355 33.001,349.997 
			33.001,345.002 33.001,344.92 33.001,339.918 		"/>
		<polygon fill="#4CAF50" points="20.539,337.532 20.539,337.5 20.539,330 15.462,330 15.462,337.5 15.462,337.532 10.828,337.532 
			18,345.95 25.173,337.532 		"/>
	</g>
	<g>
		<polygon fill="#4CAF50" points="27.925,375.926 27.925,380.922 27.925,381.002 27.925,386.004 8.08,386.004 8.08,381.002 
			8.08,380.922 8.08,375.926 3.001,375.926 3.001,380.922 3.001,381.002 3.001,386.004 3.001,391 33.001,391 33.001,386.004 
			33.001,381.002 33.001,380.922 33.001,375.926 		"/>
		<polygon fill="#4CAF50" points="20.539,373.104 20.539,373.071 20.539,365.571 15.462,365.571 15.462,373.071 15.462,373.104 
			10.828,373.104 18,381.528 25.173,373.104 		"/>
	</g>
	<polygon fill="#4CAF50" points="27.925,447.92 27.925,452.922 27.925,452.995 27.925,457.997 8.08,457.997 8.08,452.995 
		8.08,452.922 8.08,447.92 3.001,447.92 3.001,452.922 3.001,452.995 3.001,457.997 3.001,463 33.001,463 33.001,457.997 
		33.001,452.995 33.001,452.922 33.001,447.92 	"/>
	<polygon fill="#4CAF50" points="20.539,444.282 20.539,444.25 20.539,436.75 15.462,436.75 15.462,444.25 15.462,444.282 
		10.828,444.282 18,452.7 25.173,444.282 	"/>
	<g>
		<polygon fill="#4CAF50" points="27.925,555.926 27.925,560.922 27.925,561.002 27.925,566.004 8.08,566.004 8.08,561.002 
			8.08,560.922 8.08,555.926 3.001,555.926 3.001,560.922 3.001,561.002 3.001,566.004 3.001,571 33.001,571 33.001,566.004 
			33.001,561.002 33.001,560.922 33.001,555.926 		"/>
		<polygon fill="#4CAF50" points="20.539,551.036 20.539,551.004 20.539,543.504 15.462,543.504 15.462,551.004 15.462,551.036 
			10.828,551.036 18,559.454 25.173,551.036 		"/>
	</g>
	<g>
		<polygon fill="#4CAF50" points="27.925,411.926 27.925,416.922 27.925,417.002 27.925,422.004 8.08,422.004 8.08,417.002 
			8.08,416.922 8.08,411.926 3.001,411.926 3.001,416.922 3.001,417.002 3.001,422.004 3.001,427 33.001,427 33.001,422.004 
			33.001,417.002 33.001,416.922 33.001,411.926 		"/>
		<polygon fill="#4CAF50" points="20.539,408.635 20.539,408.602 20.539,401.102 15.462,401.102 15.462,408.602 15.462,408.635 
			10.828,408.635 18,417.059 25.173,408.635 		"/>
	</g>
	<g>
		<polygon fill="#4CAF50" points="27.925,483.926 27.925,488.922 27.925,489.002 27.925,494.004 8.08,494.004 8.08,489.002 
			8.08,488.922 8.08,483.926 3.001,483.926 3.001,488.922 3.001,489.002 3.001,494.004 3.001,499 33.001,499 33.001,494.004 
			33.001,489.002 33.001,488.922 33.001,483.926 		"/>
		<polygon fill="#4CAF50" points="20.539,479.858 20.539,479.823 20.539,472.323 15.462,472.323 15.462,479.823 15.462,479.858 
			10.828,479.858 18,488.276 25.173,479.858 		"/>
	</g>
	<g>
		<polygon fill="#4CAF50" points="27.925,519.926 27.925,524.922 27.925,525.002 27.925,530.004 8.08,530.004 8.08,525.002 
			8.08,524.922 8.08,519.926 3.001,519.926 3.001,524.922 3.001,525.002 3.001,530.004 3.001,535 33.001,535 33.001,530.004 
			33.001,525.002 33.001,524.922 33.001,519.926 		"/>
		<polygon fill="#4CAF50" points="20.539,515.389 20.539,515.356 20.539,507.856 15.462,507.856 15.462,515.356 15.462,515.389 
			10.828,515.389 18,523.807 25.173,515.389 		"/>
	</g>
	<g>
		<polygon fill="#4CAF50" points="27.925,591.926 27.925,596.922 27.925,597.002 27.925,602.004 8.08,602.004 8.08,597.002 
			8.08,596.922 8.08,591.926 3.001,591.926 3.001,596.922 3.001,597.002 3.001,602.004 3.001,607 33.001,607 33.001,602.004 
			33.001,597.002 33.001,596.922 33.001,591.926 		"/>
		<polygon fill="#4CAF50" points="20.539,586.606 20.539,586.573 20.539,579.073 15.462,579.073 15.462,586.573 15.462,586.606 
			10.828,586.606 18,595.03 25.173,586.606 		"/>
	</g>
	<g>
		<polygon fill="#4CAF50" points="20.539,623.036 20.539,623.004 20.539,615.504 15.462,615.504 15.462,623.004 15.462,623.036 
			10.828,623.036 18,631.454 25.173,623.036 		"/>
		<polygon fill="#4CAF50" points="27.925,627.926 27.925,632.922 27.925,633.002 27.925,638.004 8.08,638.004 8.08,633.002 
			8.08,632.922 8.08,627.926 3.001,627.926 3.001,632.922 3.001,633.002 3.001,638.004 3.001,643 33.001,643 33.001,638.004 
			33.001,633.002 33.001,632.922 33.001,627.926 		"/>
	</g>
	<rect y="0" fill="#607D8B" fill-opacity="0" width="36" height="648"/>
</g>
</svg>
