<?xml version="1.0" encoding="utf-8"?>
<!-- Generator: Adobe Illustrator 15.0.2, SVG Export Plug-In . SVG Version: 6.00 Build 0)  -->
<!DOCTYPE svg PUBLIC "-//W3C//DTD SVG 1.1//EN" "http://www.w3.org/Graphics/SVG/1.1/DTD/svg11.dtd">
<svg version="1.1" id="Calque_1" xmlns="http://www.w3.org/2000/svg" xmlns:xlink="http://www.w3.org/1999/xlink" x="0px" y="0px"
	 width="36px" height="144px" viewBox="0 0 36 144" enable-background="new 0 0 36 144" xml:space="preserve">
<g>
	<path fill="#FFC107" d="M24.74,15.167c-0.388-0.89-0.913-1.666-1.572-2.333c-0.657-0.663-1.437-1.188-2.333-1.57
		c-0.894-0.383-1.841-0.574-2.844-0.574c-1.014,0-1.962,0.191-2.852,0.574c-0.891,0.383-1.664,0.908-2.323,1.57
		c-0.662,0.667-1.183,1.443-1.565,2.333c-0.383,0.888-0.574,1.837-0.574,2.851c0,1.012,0.191,1.961,0.574,2.842
		c0.383,0.884,0.903,1.654,1.565,2.313c0.659,0.662,1.434,1.182,2.323,1.564s1.838,0.574,2.852,0.574
		c1.003,0,1.95-0.191,2.844-0.574c0.896-0.383,1.676-0.903,2.333-1.564c0.659-0.658,1.187-1.428,1.572-2.313
		c0.39-0.881,0.584-1.832,0.584-2.842C25.324,17.005,25.13,16.055,24.74,15.167z"/>
	<path fill="#FFC107" d="M24.74,123.167c-0.388-0.89-0.913-1.666-1.572-2.333c-0.657-0.662-1.437-1.188-2.333-1.57
		c-0.894-0.383-1.841-0.574-2.844-0.574c-1.014,0-1.962,0.191-2.852,0.574c-0.891,0.383-1.664,0.908-2.323,1.57
		c-0.662,0.667-1.183,1.443-1.565,2.333c-0.383,0.888-0.574,1.837-0.574,2.851c0,1.012,0.191,1.961,0.574,2.842
		c0.383,0.885,0.903,1.654,1.565,2.313c0.659,0.661,1.434,1.183,2.323,1.563c0.889,0.383,1.838,0.574,2.852,0.574
		c1.003,0,1.95-0.19,2.844-0.574c0.896-0.383,1.676-0.902,2.333-1.563c0.659-0.659,1.187-1.429,1.572-2.313
		c0.39-0.881,0.584-1.83,0.584-2.842C25.324,125.004,25.13,124.055,24.74,123.167z"/>
	
		<line fill="none" stroke="#FFC107" stroke-width="3" stroke-linecap="round" stroke-miterlimit="10" x1="28.181" y1="18" x2="32.001" y2="18"/>
	
		<line fill="none" stroke="#FFC107" stroke-width="3" stroke-linecap="round" stroke-miterlimit="10" x1="4" y1="18" x2="7.818" y2="18"/>
	
		<line fill="none" stroke="#FFC107" stroke-width="3" stroke-linecap="round" stroke-miterlimit="10" x1="18.001" y1="28.182" x2="18.001" y2="32"/>
	
		<line fill="none" stroke="#FFC107" stroke-width="3" stroke-linecap="round" stroke-miterlimit="10" x1="18.001" y1="4" x2="18.001" y2="7.816"/>
	
		<line fill="none" stroke="#FFC107" stroke-width="3" stroke-linecap="round" stroke-miterlimit="10" x1="25.201" y1="25.201" x2="27.9" y2="27.898"/>
	
		<line fill="none" stroke="#FFC107" stroke-width="3" stroke-linecap="round" stroke-miterlimit="10" x1="8.101" y1="8.102" x2="10.802" y2="10.799"/>
	
		<line fill="none" stroke="#FFC107" stroke-width="3" stroke-linecap="round" stroke-miterlimit="10" x1="25.201" y1="10.799" x2="27.9" y2="8.1"/>
	
		<line fill="none" stroke="#FFC107" stroke-width="3" stroke-linecap="round" stroke-miterlimit="10" x1="8.103" y1="27.898" x2="10.802" y2="25.2"/>
	<path fill="#FFC107" d="M25.065,52.125c-0.262-0.975-0.695-1.843-1.299-2.598c-0.603-0.758-1.311-1.37-2.117-1.842
		c-0.807-0.473-1.694-0.775-2.656-0.914c-0.961-0.138-1.925-0.076-2.891,0.181c-0.976,0.262-1.844,0.692-2.602,1.291
		c-0.76,0.603-1.369,1.305-1.834,2.116c-0.466,0.812-0.765,1.695-0.906,2.652c-0.141,0.953-0.078,1.922,0.184,2.897
		s0.689,1.839,1.285,2.591c0.6,0.755,1.301,1.363,2.106,1.827c0.806,0.465,1.687,0.769,2.646,0.907
		c0.955,0.139,1.923,0.078,2.9-0.184c0.965-0.26,1.827-0.691,2.592-1.289c0.765-0.599,1.381-1.304,1.844-2.109
		c0.468-0.805,0.773-1.687,0.921-2.637C25.386,54.066,25.328,53.102,25.065,52.125z"/>
	
		<line fill="none" stroke="#FFC107" stroke-width="3" stroke-linecap="round" stroke-miterlimit="10" x1="4.5" y1="57.615" x2="6.954" y2="56.958"/>
	
		<line fill="none" stroke="#FFC107" stroke-width="3" stroke-linecap="round" stroke-miterlimit="10" x1="29.048" y1="51.039" x2="31.5" y2="50.384"/>
	
		<line fill="none" stroke="#FFC107" stroke-width="3" stroke-linecap="round" stroke-miterlimit="10" x1="14.384" y1="40.5" x2="15.042" y2="42.954"/>
	
		<line fill="none" stroke="#FFC107" stroke-width="3" stroke-linecap="round" stroke-miterlimit="10" x1="20.961" y1="65.047" x2="21.617" y2="67.5"/>
	
		<line fill="none" stroke="#FFC107" stroke-width="3" stroke-linecap="round" stroke-miterlimit="10" x1="24.989" y1="41.896" x2="23.72" y2="44.096"/>
	
		<line fill="none" stroke="#FFC107" stroke-width="3" stroke-linecap="round" stroke-miterlimit="10" x1="12.282" y1="63.902" x2="11.013" y2="66.104"/>
	
		<line fill="none" stroke="#FFC107" stroke-width="3" stroke-linecap="round" stroke-miterlimit="10" x1="5.897" y1="47.012" x2="8.097" y2="48.281"/>
	
		<line fill="none" stroke="#FFC107" stroke-width="3" stroke-linecap="round" stroke-miterlimit="10" x1="27.905" y1="59.717" x2="30.104" y2="60.986"/>
	<path fill="#FFC107" d="M25.255,89.107c-0.104-0.957-0.41-1.873-0.914-2.746c-0.505-0.877-1.147-1.603-1.927-2.174
		c-0.778-0.578-1.621-0.987-2.524-1.23c-0.9-0.247-1.834-0.313-2.799-0.193c-0.965,0.115-1.882,0.422-2.746,0.922
		c-0.877,0.504-1.603,1.146-2.182,1.922c-0.579,0.772-0.982,1.613-1.225,2.518c-0.238,0.904-0.299,1.836-0.188,2.796
		c0.113,0.957,0.422,1.875,0.926,2.75c0.506,0.875,1.145,1.601,1.918,2.17c0.771,0.572,1.606,0.979,2.506,1.218
		c0.898,0.242,1.826,0.308,2.787,0.193c0.961-0.115,1.879-0.424,2.754-0.927c0.865-0.501,1.59-1.142,2.172-1.917
		c0.584-0.779,0.996-1.616,1.236-2.514C25.29,90.993,25.359,90.066,25.255,89.107z"/>
	
		<line fill="none" stroke="#FFC107" stroke-width="3" stroke-linecap="round" stroke-miterlimit="10" x1="5.897" y1="96.986" x2="6.996" y2="96.352"/>
	
		<line fill="none" stroke="#FFC107" stroke-width="3" stroke-linecap="round" stroke-miterlimit="10" x1="29.003" y1="83.646" x2="30.104" y2="83.012"/>
	
		<line fill="none" stroke="#FFC107" stroke-width="3" stroke-linecap="round" stroke-miterlimit="10" x1="11.013" y1="77.896" x2="11.647" y2="78.995"/>
	
		<line fill="none" stroke="#FFC107" stroke-width="3" stroke-linecap="round" stroke-miterlimit="10" x1="24.354" y1="101.006" x2="24.989" y2="102.104"/>
	
		<line fill="none" stroke="#FFC107" stroke-width="3" stroke-linecap="round" stroke-miterlimit="10" x1="4.501" y1="86.384" x2="5.728" y2="86.71"/>
	
		<line fill="none" stroke="#FFC107" stroke-width="3" stroke-linecap="round" stroke-miterlimit="10" x1="30.271" y1="93.288" x2="31.501" y2="93.616"/>
	
		<line fill="none" stroke="#FFC107" stroke-width="3" stroke-linecap="round" stroke-miterlimit="10" x1="21.617" y1="76.5" x2="21.288" y2="77.727"/>
	
		<line fill="none" stroke="#FFC107" stroke-width="3" stroke-linecap="round" stroke-miterlimit="10" x1="14.714" y1="102.273" x2="14.384" y2="103.501"/>
	<rect fill="#607D8B" fill-opacity="0" width="36" height="144"/>
</g>
</svg>
