<?xml version="1.0" encoding="utf-8"?>
<!-- Generator: Adobe Illustrator 15.0.2, SVG Export Plug-In . SVG Version: 6.00 Build 0)  -->
<!DOCTYPE svg PUBLIC "-//W3C//DTD SVG 1.1//EN" "http://www.w3.org/Graphics/SVG/1.1/DTD/svg11.dtd">
<svg version="1.1" id="Calque_1" xmlns="http://www.w3.org/2000/svg" xmlns:xlink="http://www.w3.org/1999/xlink" x="0px" y="0px"
	 width="36px" height="828px" viewBox="0 0 36 828" enable-background="new 0 0 36 828" xml:space="preserve">
<g>
	<g id="refresh">
		<path fill="#2196F3" d="M25.701,10.3c-1.925-2.063-4.674-3.3-7.7-3.3c-6.05,0-11,4.95-11,11s4.95,11,11,11
			c5.09,0,9.35-3.574,10.588-8.251h-2.888c-1.101,3.165-4.126,5.502-7.7,5.502c-4.537,0-8.25-3.713-8.25-8.251
			c0-4.537,3.713-8.25,8.25-8.25c2.338,0,4.266,0.963,5.775,2.475l-4.398,4.4h9.623V7L25.701,10.3z"/>
	</g>
	<g id="refresh_1_">
		<path fill="#2196F3" d="M27.431,48.559c-1.324-2.49-3.66-4.396-6.584-5.18c-5.842-1.566-11.905,1.934-13.472,7.778
			C5.81,57.001,9.31,63.064,15.153,64.629c4.917,1.316,9.957-1.032,12.363-5.229l-2.789-0.747c-1.883,2.772-5.409,4.247-8.862,3.321
			c-4.383-1.174-7.008-5.722-5.833-10.104c1.174-4.383,5.721-7.009,10.104-5.833c2.258,0.604,3.871,2.033,4.938,3.885l-5.388,3.112
			l9.295,2.49l2.492-9.297L27.431,48.559z"/>
	</g>
	<g id="refresh_2_">
		<path fill="#2196F3" d="M28.56,87.194c-0.635-2.748-2.396-5.192-5.019-6.707c-5.239-3.024-12.001-1.214-15.026,4.025
			c-3.024,5.24-1.213,12.003,4.026,15.027c4.408,2.545,9.886,1.58,13.295-1.853l-2.501-1.442c-2.535,2.189-6.322,2.7-9.419,0.914
			c-3.93-2.271-5.288-7.342-3.019-11.271c2.269-3.931,7.34-5.29,11.271-3.021c2.023,1.168,3.212,2.966,3.765,5.029l-6.01,1.612
			l8.334,4.812l4.813-8.336L28.56,87.194z"/>
	</g>
	<g id="refresh_3_">
		<path fill="#2196F3" d="M28.997,126.025c0.098-2.818-0.972-5.637-3.111-7.776c-4.277-4.277-11.277-4.279-15.556-0.001
			c-4.278,4.277-4.278,11.279,0,15.558c3.599,3.599,9.14,4.084,13.321,1.652l-2.042-2.042c-3.017,1.46-6.808,0.973-9.335-1.556
			c-3.208-3.209-3.208-8.459,0-11.667c3.208-3.21,8.459-3.21,11.668-0.001c1.652,1.652,2.335,3.696,2.334,5.833l-6.223,0.002
			l6.805,6.806l6.808-6.807L28.997,126.025z"/>
	</g>
	<g id="refresh_4_">
		<path fill="#2196F3" d="M28.513,164.849c0.824-2.697,0.521-5.695-0.992-8.317c-3.024-5.237-9.785-7.053-15.025-4.026
			c-5.238,3.024-7.051,9.789-4.027,15.026c2.545,4.408,7.771,6.312,12.439,5.044l-1.443-2.501c-3.291,0.63-6.826-0.821-8.615-3.918
			c-2.269-3.93-0.908-9.001,3.021-11.269c3.931-2.271,9.001-0.911,11.271,3.019c1.168,2.023,1.3,4.175,0.744,6.238l-6.011-1.608
			l4.812,8.334l8.338-4.812L28.513,164.849z"/>
	</g>
	<g id="refresh_5_">
		<path fill="#2196F3" d="M25.7,205.698c2.063-1.924,3.301-4.672,3.301-7.699c-0.002-6.049-4.949-11.001-11-11
			c-6.05,0-11.001,4.952-11,11c-0.001,5.091,3.573,9.352,8.25,10.589l0.001-2.889c-3.166-1.1-5.501-4.126-5.502-7.701
			c0-4.536,3.714-8.249,8.25-8.247c4.538-0.002,8.251,3.711,8.251,8.25c0,2.336-0.963,4.264-2.475,5.772l-4.4-4.396v9.622
			L29.001,209L25.7,205.698z"/>
	</g>
	<g id="refresh_6_">
		<path fill="#2196F3" d="M23.442,243.427c2.49-1.324,4.396-3.658,5.18-6.583c1.564-5.843-1.932-11.906-7.777-13.473
			c-5.843-1.564-11.908,1.938-13.472,7.778c-1.317,4.916,1.031,9.957,5.229,12.362l0.748-2.789
			c-2.773-1.882-4.246-5.409-3.321-8.863c1.174-4.382,5.722-7.007,10.104-5.831c4.383,1.174,7.01,5.72,5.834,10.104
			c-0.604,2.256-2.033,3.869-3.885,4.936l-3.113-5.387l-2.49,9.296l9.298,2.491L23.442,243.427z"/>
	</g>
	<g id="refresh_7_">
		<path fill="#2196F3" d="M20.806,280.508c2.748-0.635,5.193-2.396,6.707-5.019c3.023-5.239,1.217-12.001-4.024-15.024
			c-5.239-3.024-12.003-1.212-15.027,4.025c-2.545,4.407-1.581,9.886,1.853,13.294l1.443-2.5c-2.191-2.536-2.701-6.323-0.914-9.421
			c2.269-3.929,7.34-5.287,11.269-3.018c3.931,2.269,5.291,7.339,3.021,11.271c-1.168,2.022-2.966,3.211-5.029,3.763l-1.613-6.01
			l-4.811,8.335l8.334,4.813L20.806,280.508z"/>
	</g>
	<g id="refresh_8_">
		<path fill="#2196F3" d="M17.978,316.872c2.817,0.101,5.636-0.97,7.775-3.109c4.276-4.278,4.281-11.277,0.002-15.557
			c-4.279-4.276-11.281-4.276-15.558,0c-3.601,3.6-4.085,9.14-1.651,13.32l2.041-2.041c-1.461-3.017-0.973-6.808,1.557-9.337
			c3.207-3.207,8.457-3.207,11.664,0.002c3.209,3.209,3.211,8.458,0.002,11.669c-1.651,1.65-3.695,2.334-5.832,2.331l-0.004-6.222
			l-6.805,6.806l6.807,6.808L17.978,316.872z"/>
	</g>
	<g id="refresh_9_">
		<path fill="#2196F3" d="M15.152,352.509c2.696,0.825,5.694,0.521,8.315-0.992c5.238-3.025,7.055-9.785,4.027-15.025
			c-3.025-5.237-9.79-7.051-15.027-4.025c-4.408,2.545-6.312,7.771-5.043,12.438l2.5-1.441c-0.63-3.292,0.822-6.827,3.92-8.616
			c3.928-2.269,9-0.908,11.267,3.021c2.271,3.931,0.913,9-3.019,11.271c-2.022,1.166-4.175,1.298-6.238,0.742l1.607-6.012
			l-8.334,4.813l4.813,8.336L15.152,352.509z"/>
	</g>
	<g id="refresh_10_">
		<path fill="#2196F3" d="M12.527,387.43c2.391,1.494,5.366,1.978,8.29,1.192c5.843-1.565,9.347-7.626,7.779-13.471
			c-1.567-5.843-7.633-9.345-13.474-7.778c-4.917,1.317-8.106,5.872-8.091,10.709l2.789-0.745c0.242-3.344,2.561-6.383,6.016-7.31
			c4.381-1.173,8.928,1.453,10.102,5.835c1.175,4.384-1.447,8.931-5.834,10.106c-2.256,0.603-4.367,0.173-6.217-0.897l3.108-5.39
			L7.7,382.173l2.491,9.297L12.527,387.43z"/>
	</g>
	<g id="refresh_11_">
		<path fill="#2196F3" d="M10.304,421.699c1.922,2.063,4.67,3.299,7.697,3.299c6.049,0,11.002-4.946,11-10.998
			c-0.001-6.05-4.953-11.002-11-11c-5.09,0-9.351,3.573-10.587,8.25h2.888c1.1-3.166,4.125-5.5,7.702-5.502
			c4.535,0.001,8.247,3.715,8.246,8.25c0,4.539-3.709,8.251-8.25,8.254c-2.335-0.003-4.263-0.965-5.772-2.478l4.397-4.401H7.001
			L7,424.998L10.304,421.699z"/>
	</g>
	<g id="refresh_12_">
		<path fill="#2196F3" d="M8.573,455.443c1.324,2.49,3.659,4.396,6.583,5.179c5.843,1.564,11.907-1.931,13.472-7.776
			c1.564-5.843-1.938-11.907-7.777-13.472c-4.918-1.317-9.959,1.031-12.361,5.229l2.789,0.748c1.881-2.773,5.408-4.245,8.865-3.32
			c4.379,1.175,7.004,5.723,5.828,10.104c-1.174,4.385-5.717,7.01-10.104,5.837c-2.255-0.606-3.869-2.034-4.936-3.888l5.388-3.111
			l-9.298-2.491l-2.491,9.297L8.573,455.443z"/>
	</g>
	<g id="refresh_13_">
		<path fill="#2196F3" d="M7.493,488.806c0.635,2.748,2.396,5.192,5.02,6.706c5.238,3.022,12,1.217,15.024-4.025
			c3.022-5.239,1.211-12.003-4.026-15.025c-4.408-2.545-9.885-1.58-13.293,1.852l2.5,1.444c2.535-2.192,6.323-2.701,9.422-0.913
			c3.928,2.269,5.285,7.34,3.017,11.267c-2.271,3.933-7.337,5.291-11.271,3.023c-2.021-1.17-3.211-2.968-3.762-5.032l6.01-1.611
			L7.8,481.678l-4.813,8.335L7.493,488.806z"/>
	</g>
	<g id="refresh_14_">
		<path fill="#2196F3" d="M7.127,521.977c-0.098,2.818,0.972,5.635,3.112,7.776c4.277,4.275,11.277,4.28,15.555,0
			c4.276-4.278,4.276-11.28,0-15.558c-3.6-3.599-9.14-4.084-13.318-1.65l2.041,2.042c3.016-1.462,6.807-0.974,9.336,1.557
			c3.207,3.207,3.205,8.457-0.002,11.663c-3.211,3.21-8.457,3.212-11.67,0.003c-1.648-1.653-2.332-3.696-2.33-5.834l6.222-0.001
			l-6.806-6.806l-6.807,6.805L7.127,521.977z"/>
	</g>
	<g id="refresh_15_">
		<path fill="#2196F3" d="M7.493,555.152c-0.824,2.696-0.521,5.693,0.993,8.316c3.024,5.237,9.784,7.055,15.024,4.025
			c5.237-3.025,7.049-9.789,4.025-15.026c-2.546-4.407-7.771-6.311-12.438-5.042l1.442,2.501c3.291-0.633,6.826,0.821,8.616,3.92
			c2.268,3.928,0.906,8.998-3.021,11.265c-3.932,2.271-9,0.914-11.272-3.018c-1.165-2.023-1.296-4.175-0.741-6.238l6.01,1.609
			l-4.813-8.335l-8.335,4.812L7.493,555.152z"/>
	</g>
	<g id="refresh_16_">
		<path fill="#2196F3" d="M8.572,588.527c-1.494,2.392-1.978,5.364-1.192,8.29c1.565,5.843,7.625,9.347,13.469,7.777
			c5.844-1.567,9.344-7.631,7.778-13.474c-1.317-4.916-5.874-8.105-10.71-8.09l0.747,2.789c3.343,0.241,6.381,2.563,7.308,6.017
			c1.174,4.382-1.453,8.927-5.834,10.1c-4.383,1.176-8.929-1.446-10.106-5.832c-0.603-2.256-0.172-4.367,0.899-6.218l5.389,3.109
			l-2.491-9.297l-9.296,2.49L8.572,588.527z"/>
	</g>
	<g id="refresh_17_">
		<path fill="#2196F3" d="M10.3,622.303c-2.063,1.923-3.298,4.67-3.299,7.699c0,6.049,4.947,11.002,10.998,10.997
			c6.051-0.001,11-4.951,11.001-11c-0.002-5.09-3.575-9.351-8.252-10.586v2.889c3.166,1.098,5.5,4.125,5.502,7.703
			c-0.002,4.534-3.715,8.244-8.25,8.243c-4.54,0.001-8.251-3.708-8.254-8.249c0.003-2.335,0.964-4.264,2.478-5.772l4.4,4.397V619
			l-9.625-0.001L10.3,622.303z"/>
	</g>
	<g id="refresh_18_">
		<path fill="#2196F3" d="M12.558,656.573c-2.489,1.324-4.395,3.658-5.178,6.584c-1.566,5.844,1.93,11.907,7.775,13.471
			c5.845,1.563,11.906-1.938,13.475-7.778c1.315-4.916-1.035-9.957-5.229-12.36l-0.748,2.789c2.772,1.88,4.245,5.408,3.319,8.864
			c-1.174,4.381-5.722,7.003-10.102,5.828c-4.385-1.174-7.01-5.717-5.838-10.104c0.607-2.255,2.035-3.869,3.887-4.936l3.112,5.387
			l2.491-9.296l-9.297-2.491L12.558,656.573z"/>
	</g>
	<g id="refresh_19_">
		<path fill="#2196F3" d="M15.194,691.49c-2.747,0.636-5.189,2.396-6.706,5.021c-3.024,5.239-1.218,12.001,4.024,15.022
			c5.24,3.024,12.002,1.212,15.027-4.025c2.544-4.407,1.578-9.885-1.854-13.292l-1.443,2.5c2.191,2.534,2.701,6.323,0.913,9.422
			c-2.269,3.928-7.339,5.283-11.267,3.015c-3.932-2.269-5.291-7.336-3.023-11.27c1.17-2.021,2.967-3.211,5.031-3.763l1.611,6.01
			l4.813-8.335l-8.334-4.813L15.194,691.49z"/>
	</g>
	<g id="refresh_20_">
		<path fill="#2196F3" d="M18.024,727.125c-2.818-0.099-5.635,0.971-7.776,3.111c-4.276,4.278-4.28,11.277,0,15.555
			c4.279,4.276,11.279,4.276,15.558,0c3.599-3.6,4.084-9.141,1.65-13.318l-2.042,2.041c1.462,3.016,0.974,6.807-1.557,9.337
			c-3.208,3.207-8.456,3.204-11.662-0.004c-3.211-3.209-3.213-8.455-0.004-11.668c1.653-1.649,3.696-2.333,5.834-2.331l0.001,6.221
			l6.806-6.805l-6.805-6.807L18.024,727.125z"/>
	</g>
	<g id="refresh_21_">
		<path fill="#2196F3" d="M20.849,763.49c-2.695-0.822-5.692-0.521-8.315,0.994c-5.239,3.025-7.054,9.785-4.026,15.023
			c3.026,5.238,9.789,7.051,15.028,4.025c4.406-2.545,6.31-7.771,5.041-12.437l-2.501,1.442c0.632,3.291-0.822,6.825-3.92,8.615
			c-3.93,2.269-8.997,0.906-11.264-3.021c-2.271-3.932-0.916-8.999,3.016-11.271c2.023-1.165,4.175-1.297,6.238-0.74l-1.608,6.009
			l8.335-4.813l-4.813-8.335L20.849,763.49z"/>
	</g>
	<g id="refresh_22_">
		<path fill="#2196F3" d="M23.474,800.57c-2.392-1.493-5.363-1.977-8.289-1.191c-5.844,1.565-9.348,7.626-7.777,13.47
			c1.566,5.844,7.629,9.344,13.475,7.777c4.914-1.316,8.104-5.873,8.088-10.707l-2.789,0.745c-0.241,3.343-2.563,6.382-6.018,7.309
			c-4.381,1.174-8.924-1.453-10.097-5.835c-1.177-4.385,1.444-8.93,5.829-10.106c2.258-0.602,4.369-0.172,6.219,0.898l-3.109,5.388
			l9.297-2.49l-2.49-9.296L23.474,800.57z"/>
	</g>
	<rect y="0" fill="#607D8B" fill-opacity="0" width="36" height="828"/>
</g>
</svg>
