<?xml version="1.0" encoding="utf-8"?>
<!-- Generator: Adobe Illustrator 15.0.2, SVG Export Plug-In . SVG Version: 6.00 Build 0)  -->
<!DOCTYPE svg PUBLIC "-//W3C//DTD SVG 1.1//EN" "http://www.w3.org/Graphics/SVG/1.1/DTD/svg11.dtd">
<svg version="1.1" id="Calque_1" xmlns="http://www.w3.org/2000/svg" xmlns:xlink="http://www.w3.org/1999/xlink" x="0px" y="0px"
	 width="36px" height="1296px" viewBox="0 0 36 1296" enable-background="new 0 0 36 1296" xml:space="preserve">
<g>
	<rect y="0" fill="#607D8B" fill-opacity="0" width="36" height="1296"/>
	<rect x="3" y="14" fill="#2196F3" width="8" height="8.001"/>
	<rect x="3" y="3" fill="#FFC107" width="8" height="8.001"/>
	<rect x="3" y="24.999" fill="#FFC107" width="8" height="8.001"/>
	<rect x="3" y="50" fill="#2196F3" width="8" height="8.001"/>
	<rect x="3" y="39" fill="#FFC107" width="8" height="8.001"/>
	<rect x="3" y="60.999" fill="#FFC107" width="8" height="8.001"/>
	<rect x="25" y="14" fill="#2196F3" width="8" height="8.001"/>
	<rect x="25" y="3" fill="#E91E63" width="8" height="8.001"/>
	<rect x="25" y="24.999" fill="#E91E63" width="8" height="8.001"/>
	<rect x="25" y="50" fill="#2196F3" width="8" height="8.001"/>
	<rect x="25" y="39" fill="#E91E63" width="8" height="8.001"/>
	<rect x="25" y="60.999" fill="#E91E63" width="8" height="8.001"/>
	<rect x="3" y="86" fill="#2196F3" width="8" height="8.001"/>
	<rect x="3" y="75" fill="#FFC107" width="8" height="8.001"/>
	<rect x="3" y="96.999" fill="#FFC107" width="8" height="8.001"/>
	<rect x="3" y="122" fill="#2196F3" width="8" height="8"/>
	<rect x="3" y="111" fill="#FFC107" width="8" height="8"/>
	<rect x="3" y="132.998" fill="#FFC107" width="8" height="8.002"/>
	<rect x="25" y="86" fill="#2196F3" width="8" height="8.001"/>
	<rect x="25" y="75" fill="#E91E63" width="8" height="8.001"/>
	<rect x="25" y="96.999" fill="#E91E63" width="8" height="8.001"/>
	<rect x="25" y="122" fill="#2196F3" width="8" height="8"/>
	<rect x="25" y="111" fill="#E91E63" width="8" height="8"/>
	<rect x="25" y="132.998" fill="#E91E63" width="8" height="8.002"/>
	<rect x="3" y="158" fill="#2196F3" width="8" height="8"/>
	<rect x="3" y="147" fill="#FFC107" width="8" height="8"/>
	<rect x="3" y="168.997" fill="#FFC107" width="8" height="8.003"/>
	<rect x="3" y="194" fill="#2196F3" width="8" height="8"/>
	<rect x="3" y="183" fill="#FFC107" width="8" height="8"/>
	<rect x="3" y="204.997" fill="#FFC107" width="8" height="8.003"/>
	<rect x="25" y="158" fill="#2196F3" width="8" height="8"/>
	<rect x="25" y="147" fill="#E91E63" width="8" height="8"/>
	<rect x="25" y="168.997" fill="#E91E63" width="8" height="8.003"/>
	<rect x="25" y="194" fill="#2196F3" width="8" height="8"/>
	<rect x="25" y="183" fill="#E91E63" width="8" height="8"/>
	<rect x="25" y="204.997" fill="#E91E63" width="8" height="8.003"/>
	<rect x="3" y="230" fill="#2196F3" width="8" height="8"/>
	<rect x="3" y="219" fill="#FFC107" width="8" height="8"/>
	<rect x="3" y="240.997" fill="#FFC107" width="8" height="8.003"/>
	<rect x="3" y="266" fill="#2196F3" width="8" height="8"/>
	<rect x="3" y="255" fill="#FFC107" width="8" height="8"/>
	<rect x="3" y="276.997" fill="#FFC107" width="8" height="8.003"/>
	<rect x="25" y="230" fill="#2196F3" width="8" height="8"/>
	<rect x="25" y="219" fill="#E91E63" width="8" height="8"/>
	<rect x="25" y="240.997" fill="#E91E63" width="8" height="8.003"/>
	<rect x="25" y="266" fill="#2196F3" width="8" height="8"/>
	<rect x="25" y="255" fill="#E91E63" width="8" height="8"/>
	<rect x="25" y="276.997" fill="#E91E63" width="8" height="8.003"/>
	<rect x="3" y="302" fill="#2196F3" width="8" height="8"/>
	<rect x="3" y="291" fill="#FFC107" width="8" height="8"/>
	<rect x="3" y="312.997" fill="#FFC107" width="8" height="8.003"/>
	<rect x="3" y="338" fill="#2196F3" width="8" height="8"/>
	<rect x="3" y="327" fill="#FFC107" width="8" height="8"/>
	<rect x="3" y="348.997" fill="#FFC107" width="8" height="8.003"/>
	<rect x="25" y="302" fill="#2196F3" width="8" height="8"/>
	<rect x="25" y="291" fill="#E91E63" width="8" height="8"/>
	<rect x="25" y="312.997" fill="#E91E63" width="8" height="8.003"/>
	<rect x="25" y="338" fill="#2196F3" width="8" height="8"/>
	<rect x="25" y="327" fill="#E91E63" width="8" height="8"/>
	<rect x="25" y="348.997" fill="#E91E63" width="8" height="8.003"/>
	<rect x="3" y="374" fill="#2196F3" width="8" height="8"/>
	<rect x="3" y="363" fill="#FFC107" width="8" height="8"/>
	<rect x="3" y="384.997" fill="#FFC107" width="8" height="8.003"/>
	<rect x="3" y="410" fill="#2196F3" width="8" height="8"/>
	<rect x="3" y="399" fill="#FFC107" width="8" height="8"/>
	<rect x="3" y="420.997" fill="#FFC107" width="8" height="8.003"/>
	<rect x="25" y="374" fill="#2196F3" width="8" height="8"/>
	<rect x="25" y="363" fill="#E91E63" width="8" height="8"/>
	<rect x="25" y="384.997" fill="#E91E63" width="8" height="8.003"/>
	<rect x="25" y="410" fill="#2196F3" width="8" height="8"/>
	<rect x="25" y="399" fill="#E91E63" width="8" height="8"/>
	<rect x="25" y="420.997" fill="#E91E63" width="8" height="8.003"/>
	<rect x="3" y="446" fill="#2196F3" width="8" height="8"/>
	<rect x="3" y="435" fill="#FFC107" width="8" height="8"/>
	<rect x="3" y="456.997" fill="#FFC107" width="8" height="8.003"/>
	<rect x="3" y="482" fill="#2196F3" width="8" height="8"/>
	<rect x="3" y="471" fill="#FFC107" width="8" height="8"/>
	<rect x="3" y="492.997" fill="#FFC107" width="8" height="8.003"/>
	<rect x="25" y="446" fill="#2196F3" width="8" height="8"/>
	<rect x="25" y="435" fill="#E91E63" width="8" height="8"/>
	<rect x="25" y="456.997" fill="#E91E63" width="8" height="8.003"/>
	<rect x="25" y="482" fill="#2196F3" width="8" height="8"/>
	<rect x="25" y="471" fill="#E91E63" width="8" height="8"/>
	<rect x="25" y="492.997" fill="#E91E63" width="8" height="8.003"/>
	<rect x="3" y="518" fill="#2196F3" width="8" height="8"/>
	<rect x="3" y="507" fill="#FFC107" width="8" height="8"/>
	<rect x="3" y="528.997" fill="#FFC107" width="8" height="8.003"/>
	<rect x="3" y="554" fill="#2196F3" width="8" height="8"/>
	<rect x="3" y="543" fill="#FFC107" width="8" height="8"/>
	<rect x="3" y="564.997" fill="#FFC107" width="8" height="8.003"/>
	<rect x="25" y="518" fill="#2196F3" width="8" height="8"/>
	<rect x="25" y="507" fill="#E91E63" width="8" height="8"/>
	<rect x="25" y="528.997" fill="#E91E63" width="8" height="8.003"/>
	<rect x="25" y="554" fill="#2196F3" width="8" height="8"/>
	<rect x="25" y="543" fill="#E91E63" width="8" height="8"/>
	<rect x="25" y="564.997" fill="#E91E63" width="8" height="8.003"/>
	<rect x="3" y="590" fill="#2196F3" width="8" height="8"/>
	<rect x="3" y="579" fill="#FFC107" width="8" height="8"/>
	<rect x="3" y="600.997" fill="#FFC107" width="8" height="8.003"/>
	<rect x="3" y="626" fill="#2196F3" width="8" height="8"/>
	<rect x="3" y="615" fill="#FFC107" width="8" height="8"/>
	<rect x="3" y="636.997" fill="#FFC107" width="8" height="8.003"/>
	<rect x="25" y="590" fill="#2196F3" width="8" height="8"/>
	<rect x="25" y="579" fill="#E91E63" width="8" height="8"/>
	<rect x="25" y="600.997" fill="#E91E63" width="8" height="8.003"/>
	<rect x="25" y="626" fill="#2196F3" width="8" height="8"/>
	<rect x="25" y="615" fill="#E91E63" width="8" height="8"/>
	<rect x="25" y="636.997" fill="#E91E63" width="8" height="8.003"/>
	<rect x="3" y="1273.998" fill="#2196F3" width="8" height="8.002"/>
	<rect x="14" y="1273.998" fill="#4CAF50" width="8" height="8.002"/>
	<rect x="25" y="1273.998" fill="#2196F3" width="8" height="8.002"/>
	<rect x="3" y="1262.998" fill="#FFC107" width="8" height="8.002"/>
	<rect x="14" y="1262.998" fill="#2196F3" width="8" height="8.002"/>
	<rect x="25" y="1262.998" fill="#E91E63" width="8" height="8.002"/>
	<rect x="3" y="1284.998" fill="#FFC107" width="8" height="8.002"/>
	<rect x="14" y="1284.998" fill="#4CAF50" width="8" height="8.002"/>
	<rect x="25" y="1284.998" fill="#E91E63" width="8" height="8.002"/>
	<rect x="3" y="661.997" fill="#2196F3" width="8" height="8"/>
	<rect x="14" y="661.997" fill="#4CAF50" width="8" height="8"/>
	<rect x="25" y="661.997" fill="#2196F3" width="8" height="8"/>
	<rect x="3" y="672.997" fill="#FFC107" width="8" height="8"/>
	<rect x="14" y="672.997" fill="#4CAF50" width="8" height="8"/>
	<rect x="25" y="672.997" fill="#E91E63" width="8" height="8"/>
	<rect x="14" y="650.997" fill="#2196F3" width="8" height="8.003"/>
	<rect x="25" y="650.997" fill="#E91E63" width="8" height="8.003"/>
	<rect x="3" y="650.997" fill="#FFC107" width="8" height="8.003"/>
	<rect x="14" y="25" fill="#4CAF50" width="8" height="8"/>
	<rect x="14" y="14" fill="#4CAF50" width="8" height="8"/>
	<rect x="14" y="3" fill="#2196F3" width="8" height="8"/>
	<polygon fill="#4CAF50" points="14,71 22,71 22.268,63.265 13.732,63.265 	"/>
	<polygon fill="#4CAF50" points="13.633,60.366 22.367,60.366 22.633,52.633 13.365,52.633 	"/>
	<polygon fill="#2196F3" points="22.734,49.732 23,42 13,42 13.266,49.732 	"/>
	<polygon fill="#4CAF50" points="14,106.999 22,106.999 22.268,99.798 13.732,99.798 	"/>
	<polygon fill="#4CAF50" points="13.633,97.098 22.367,97.098 22.633,89.898 13.365,89.898 	"/>
	<polygon fill="#2196F3" points="22.734,87.198 23,79.999 13,79.999 13.266,87.198 	"/>
	<polygon fill="#2196F3" points="22,74.999 14,74.999 13.732,76.065 22.268,76.065 	"/>
	<polygon fill="#4CAF50" points="22.367,76.464 13.633,76.464 13.367,77.532 22.635,77.532 	"/>
	<polygon fill="#4CAF50" points="13.266,77.932 13,78.999 23,78.999 22.734,77.932 	"/>
	<polygon fill="#4CAF50" points="14,143 22,143 22.268,136.332 13.732,136.332 	"/>
	<polygon fill="#4CAF50" points="13.633,133.832 22.367,133.832 22.633,127.166 13.365,127.166 	"/>
	<polygon fill="#2196F3" points="22.734,124.666 23,117.998 13,117.998 13.266,124.666 	"/>
	<polygon fill="#2196F3" points="22,110.999 14,110.999 13.732,112.598 22.268,112.598 	"/>
	<polygon fill="#4CAF50" points="22.367,113.198 13.633,113.198 13.367,114.801 22.635,114.801 	"/>
	<polygon fill="#4CAF50" points="13.266,115.399 13,116.998 23,116.998 22.734,115.399 	"/>
	<polygon fill="#4CAF50" points="14,178 22,178 22.268,171.865 13.732,171.865 	"/>
	<polygon fill="#4CAF50" points="13.633,169.567 22.367,169.567 22.633,163.432 13.365,163.432 	"/>
	<polygon fill="#2196F3" points="22.734,161.133 23,155 13,155 13.266,161.133 	"/>
	<polygon fill="#2196F3" points="22,146 14,146 13.732,148.133 22.268,148.133 	"/>
	<polygon fill="#4CAF50" points="22.367,148.93 13.633,148.93 13.367,151.069 22.635,151.069 	"/>
	<polygon fill="#4CAF50" points="13.266,151.867 13,154 23,154 22.734,151.867 	"/>
	<polygon fill="#4CAF50" points="13.999,214 22,214 22.266,208.399 13.732,208.399 	"/>
	<polygon fill="#4CAF50" points="13.633,206.299 22.367,206.299 22.633,200.698 13.365,200.698 	"/>
	<polygon fill="#2196F3" points="22.733,198.6 23,193 12.999,193 13.266,198.6 	"/>
	<polygon fill="#2196F3" points="22,181.997 13.999,181.997 13.732,184.663 22.266,184.663 	"/>
	<polygon fill="#4CAF50" points="22.366,185.661 13.633,185.661 13.366,188.336 22.635,188.336 	"/>
	<polygon fill="#4CAF50" points="13.266,189.331 12.999,191.997 23,191.997 22.733,189.331 	"/>
	<polygon fill="#4CAF50" points="13.999,250 22,250 22.266,244.932 13.732,244.932 	"/>
	<polygon fill="#4CAF50" points="13.633,243.032 22.367,243.032 22.633,237.965 13.365,237.965 	"/>
	<polygon fill="#2196F3" points="22.733,236.067 23,231 12.999,231 13.266,236.067 	"/>
	<polygon fill="#2196F3" points="22,217.997 13.999,217.997 13.732,221.198 22.266,221.198 	"/>
	<polygon fill="#4CAF50" points="22.366,222.395 13.633,222.395 13.366,225.604 22.635,225.604 	"/>
	<polygon fill="#4CAF50" points="13.266,226.799 12.999,229.997 23,229.997 22.733,226.799 	"/>
	<polygon fill="#4CAF50" points="13.999,286 22,286 22.266,281.465 13.732,281.465 	"/>
	<polygon fill="#4CAF50" points="13.633,279.766 22.367,279.766 22.633,275.233 13.365,275.233 	"/>
	<polygon fill="#2196F3" points="22.733,273.532 23,269 12.999,269 13.266,273.532 	"/>
	<polygon fill="#2196F3" points="22,253.997 13.999,253.997 13.732,257.731 22.266,257.731 	"/>
	<polygon fill="#4CAF50" points="22.366,259.127 13.633,259.127 13.366,262.87 22.635,262.87 	"/>
	<polygon fill="#4CAF50" points="13.266,264.266 12.999,267.997 23,267.997 22.733,264.266 	"/>
	<polygon fill="#4CAF50" points="13.999,322 22,322 22.266,317.733 13.732,317.733 	"/>
	<polygon fill="#4CAF50" points="13.633,316.133 22.367,316.133 22.633,311.865 13.365,311.865 	"/>
	<polygon fill="#2196F3" points="22.733,310.268 23,306 12.999,306 13.266,310.268 	"/>
	<polygon fill="#2196F3" points="22,289.997 13.999,289.997 13.732,293.997 22.266,293.997 	"/>
	<polygon fill="#4CAF50" points="22.366,295.491 13.633,295.491 13.366,299.504 22.635,299.504 	"/>
	<polygon fill="#4CAF50" points="13.266,301 12.999,304.997 23,304.997 22.733,301 	"/>
	<rect x="14" y="625.997" fill="#4CAF50" width="8" height="8"/>
	<rect x="14" y="614.997" fill="#2196F3" width="8" height="8"/>
	<rect x="14" y="636.997" fill="#4CAF50" width="8" height="8"/>
	<polygon fill="#2196F3" points="22,578 14,578 13.732,585.733 22.268,585.733 	"/>
	<polygon fill="#4CAF50" points="22.367,588.633 13.633,588.633 13.367,596.366 22.635,596.366 	"/>
	<polygon fill="#4CAF50" points="13.266,599.266 13,607 23,607 22.734,599.266 	"/>
	<polygon fill="#2196F3" points="22,541 14,541 13.732,548.198 22.268,548.198 	"/>
	<polygon fill="#4CAF50" points="22.367,550.901 13.633,550.901 13.367,558.1 22.635,558.1 	"/>
	<polygon fill="#4CAF50" points="13.266,560.799 13,568 23,568 22.734,560.799 	"/>
	<polygon fill="#4CAF50" points="14,573 22,573 22.268,571.934 13.732,571.934 	"/>
	<polygon fill="#4CAF50" points="13.633,571.532 22.367,571.532 22.633,570.465 13.365,570.465 	"/>
	<polygon fill="#2196F3" points="22.734,570.067 23,569 13,569 13.266,570.067 	"/>
	<polygon fill="#2196F3" points="22,506 14,506 13.732,512.666 22.268,512.666 	"/>
	<polygon fill="#4CAF50" points="22.367,515.166 13.633,515.166 13.367,521.834 22.635,521.834 	"/>
	<polygon fill="#4CAF50" points="13.266,524.331 13,531 23,531 22.734,524.331 	"/>
	<polygon fill="#4CAF50" points="14,538 22,538 22.268,536.401 13.732,536.401 	"/>
	<polygon fill="#4CAF50" points="13.633,535.801 22.367,535.801 22.633,534.198 13.365,534.198 	"/>
	<polygon fill="#2196F3" points="22.734,533.6 23,532 13,532 13.266,533.6 	"/>
	<polygon fill="#2196F3" points="22,470 14,470 13.732,476.133 22.268,476.133 	"/>
	<polygon fill="#4CAF50" points="22.367,478.434 13.633,478.434 13.367,484.567 22.635,484.567 	"/>
	<polygon fill="#4CAF50" points="13.266,486.865 13,493 23,493 22.734,486.865 	"/>
	<polygon fill="#4CAF50" points="14,502 22,502 22.268,499.866 13.732,499.866 	"/>
	<polygon fill="#4CAF50" points="13.633,499.069 22.367,499.069 22.633,496.93 13.365,496.93 	"/>
	<polygon fill="#2196F3" points="22.734,496.133 23,494 13,494 13.266,496.133 	"/>
	<polygon fill="#2196F3" points="22,434 14,434 13.732,439.6 22.268,439.6 	"/>
	<polygon fill="#4CAF50" points="22.367,441.698 13.633,441.698 13.367,447.299 22.635,447.299 	"/>
	<polygon fill="#4CAF50" points="13.266,449.399 13,455 23,455 22.734,449.399 	"/>
	<polygon fill="#4CAF50" points="14,466 22,466 22.268,463.334 13.732,463.334 	"/>
	<polygon fill="#4CAF50" points="13.633,462.336 22.367,462.336 22.633,459.661 13.365,459.661 	"/>
	<polygon fill="#2196F3" points="22.734,458.666 23,456 13,456 13.266,458.666 	"/>
	<polygon fill="#2196F3" points="22,398 14,398 13.732,403.067 22.268,403.067 	"/>
	<polygon fill="#4CAF50" points="22.367,404.965 13.633,404.965 13.367,410.032 22.635,410.032 	"/>
	<polygon fill="#4CAF50" points="13.266,411.932 13,417 23,417 22.734,411.932 	"/>
	<polygon fill="#4CAF50" points="14,430 22,430 22.268,426.801 13.732,426.801 	"/>
	<polygon fill="#4CAF50" points="13.633,425.604 22.367,425.604 22.633,422.395 13.365,422.395 	"/>
	<polygon fill="#2196F3" points="22.734,421.198 23,418 13,418 13.266,421.198 	"/>
	<polygon fill="#2196F3" points="22,362 14,362 13.732,366.532 22.268,366.532 	"/>
	<polygon fill="#4CAF50" points="22.367,368.233 13.633,368.233 13.367,372.766 22.635,372.766 	"/>
	<polygon fill="#4CAF50" points="13.266,374.465 13,379 23,379 22.734,374.465 	"/>
	<polygon fill="#4CAF50" points="14,394 22,394 22.268,390.268 13.732,390.268 	"/>
	<polygon fill="#4CAF50" points="13.633,388.87 22.367,388.87 22.633,385.127 13.365,385.127 	"/>
	<polygon fill="#2196F3" points="22.734,383.733 23,380 13,380 13.266,383.733 	"/>
	<polygon fill="#2196F3" points="22,326 14,326 13.732,330.268 22.268,330.268 	"/>
	<polygon fill="#4CAF50" points="22.367,331.865 13.633,331.865 13.367,336.133 22.635,336.133 	"/>
	<polygon fill="#4CAF50" points="13.266,337.733 13,342 23,342 22.734,337.733 	"/>
	<polygon fill="#4CAF50" points="14,358 22,358 22.268,354 13.732,354 	"/>
	<polygon fill="#4CAF50" points="13.633,352.506 22.367,352.506 22.633,348.493 13.365,348.493 	"/>
	<polygon fill="#2196F3" points="22.734,346.997 23,343 13,343 13.266,346.997 	"/>
	<rect x="13.998" y="687" fill="#2196F3" width="8.001" height="8"/>
	<rect x="24.998" y="687" fill="#E91E63" width="8.002" height="8"/>
	<rect x="2.999" y="687" fill="#FFC107" width="8.001" height="8"/>
	<rect x="13.998" y="709" fill="#4CAF50" width="8.001" height="8"/>
	<rect x="24.998" y="709" fill="#E91E63" width="8.002" height="8"/>
	<rect x="2.999" y="709" fill="#FFC107" width="8.001" height="8"/>
	<rect x="13.997" y="723" fill="#2196F3" width="8.001" height="8"/>
	<rect x="24.998" y="723" fill="#E91E63" width="8" height="8"/>
	<rect x="2.998" y="723" fill="#FFC107" width="8.001" height="8"/>
	<rect x="13.998" y="758.997" fill="#2196F3" width="8.001" height="8"/>
	<rect x="24.998" y="758.997" fill="#E91E63" width="8.002" height="8"/>
	<rect x="2.999" y="758.997" fill="#FFC107" width="8.001" height="8"/>
	<rect x="13.997" y="745" fill="#4CAF50" width="8.001" height="8"/>
	<rect x="24.998" y="745" fill="#E91E63" width="8" height="8"/>
	<rect x="2.998" y="745" fill="#FFC107" width="8.001" height="8"/>
	<rect x="13.998" y="780.997" fill="#4CAF50" width="8.001" height="8"/>
	<rect x="24.998" y="780.997" fill="#E91E63" width="8.002" height="8"/>
	<rect x="2.999" y="780.997" fill="#FFC107" width="8.001" height="8"/>
	<rect x="13.999" y="795" fill="#2196F3" width="8.001" height="8"/>
	<rect x="25" y="795" fill="#E91E63" width="8" height="8"/>
	<rect x="3" y="795" fill="#FFC107" width="8.001" height="8"/>
	<rect x="13.999" y="830.997" fill="#2196F3" width="8.001" height="8"/>
	<rect x="24.998" y="830.997" fill="#E91E63" width="8.002" height="8"/>
	<rect x="3" y="830.997" fill="#FFC107" width="8.001" height="8"/>
	<rect x="13.999" y="817" fill="#4CAF50" width="8.001" height="8"/>
	<rect x="25" y="817" fill="#E91E63" width="8" height="8"/>
	<rect x="3" y="817" fill="#FFC107" width="8.001" height="8"/>
	<rect x="13.999" y="853" fill="#4CAF50" width="8.001" height="8"/>
	<rect x="24.998" y="853" fill="#E91E63" width="8.002" height="8"/>
	<rect x="3" y="853" fill="#FFC107" width="8.001" height="8"/>
	<rect x="13.999" y="867" fill="#2196F3" width="8.001" height="8"/>
	<rect x="24.998" y="867" fill="#E91E63" width="8.002" height="8"/>
	<rect x="3" y="867" fill="#FFC107" width="8.001" height="8"/>
	<rect x="13.999" y="903" fill="#2196F3" width="8.001" height="8"/>
	<rect x="24.998" y="903" fill="#E91E63" width="8.002" height="8"/>
	<rect x="3" y="903" fill="#FFC107" width="8.001" height="8"/>
	<rect x="13.999" y="889" fill="#4CAF50" width="8.001" height="8"/>
	<rect x="24.998" y="889" fill="#E91E63" width="8.002" height="8"/>
	<rect x="3" y="889" fill="#FFC107" width="8.001" height="8"/>
	<rect x="13.999" y="925" fill="#4CAF50" width="8.001" height="8"/>
	<rect x="24.998" y="925" fill="#E91E63" width="8.002" height="8"/>
	<rect x="3" y="925" fill="#FFC107" width="8.001" height="8"/>
	<rect x="13.999" y="939" fill="#2196F3" width="8.001" height="8"/>
	<rect x="24.998" y="939" fill="#E91E63" width="8.002" height="8"/>
	<rect x="3" y="939" fill="#FFC107" width="8.001" height="8"/>
	<rect x="13.999" y="975" fill="#2196F3" width="8.001" height="8"/>
	<rect x="25" y="975" fill="#E91E63" width="8" height="8"/>
	<rect x="3" y="975" fill="#FFC107" width="8.001" height="8"/>
	<rect x="13.999" y="961" fill="#4CAF50" width="8.001" height="8"/>
	<rect x="24.998" y="961" fill="#E91E63" width="8.002" height="8"/>
	<rect x="3" y="961" fill="#FFC107" width="8.001" height="8"/>
	<rect x="13.999" y="997" fill="#4CAF50" width="8.001" height="8"/>
	<rect x="25" y="997" fill="#E91E63" width="8" height="8"/>
	<rect x="3" y="997" fill="#FFC107" width="8.001" height="8"/>
	<rect x="13.999" y="1011" fill="#2196F3" width="8.001" height="8"/>
	<rect x="25" y="1011" fill="#E91E63" width="8" height="8"/>
	<rect x="3" y="1011" fill="#FFC107" width="8.001" height="8"/>
	<rect x="13.999" y="1047" fill="#2196F3" width="8.001" height="8"/>
	<rect x="25" y="1047" fill="#E91E63" width="8" height="8"/>
	<rect x="3" y="1047" fill="#FFC107" width="8.001" height="8"/>
	<rect x="13.999" y="1033" fill="#4CAF50" width="8.001" height="8"/>
	<rect x="25" y="1033" fill="#E91E63" width="8" height="8"/>
	<rect x="3" y="1033" fill="#FFC107" width="8.001" height="8"/>
	<rect x="13.999" y="1069" fill="#4CAF50" width="8.001" height="8"/>
	<rect x="25" y="1069" fill="#E91E63" width="8" height="8"/>
	<rect x="3" y="1069" fill="#FFC107" width="8.001" height="8"/>
	<rect x="13.999" y="1083" fill="#2196F3" width="8.001" height="8"/>
	<rect x="25" y="1083" fill="#E91E63" width="8" height="8"/>
	<rect x="3" y="1083" fill="#FFC107" width="8.001" height="8"/>
	<rect x="13.999" y="1119" fill="#2196F3" width="8.001" height="8"/>
	<rect x="25" y="1119" fill="#E91E63" width="8" height="8"/>
	<rect x="3" y="1119" fill="#FFC107" width="8.001" height="8"/>
	<rect x="13.999" y="1105" fill="#4CAF50" width="8.001" height="8"/>
	<rect x="25" y="1105" fill="#E91E63" width="8" height="8"/>
	<rect x="3" y="1105" fill="#FFC107" width="8.001" height="8"/>
	<rect x="13.999" y="1141" fill="#4CAF50" width="8.001" height="8"/>
	<rect x="25" y="1141" fill="#E91E63" width="8" height="8"/>
	<rect x="3" y="1141" fill="#FFC107" width="8.001" height="8"/>
	<rect x="13.999" y="1155" fill="#2196F3" width="8.001" height="8"/>
	<rect x="25" y="1155" fill="#E91E63" width="8" height="8"/>
	<rect x="3" y="1155" fill="#FFC107" width="8.001" height="8"/>
	<rect x="13.999" y="1190.998" fill="#2196F3" width="8.001" height="8"/>
	<rect x="25" y="1190.998" fill="#E91E63" width="8" height="8"/>
	<rect x="3" y="1190.998" fill="#FFC107" width="8.001" height="8"/>
	<rect x="13.999" y="1177" fill="#4CAF50" width="8.001" height="8"/>
	<rect x="25" y="1177" fill="#E91E63" width="8" height="8"/>
	<rect x="3" y="1177" fill="#FFC107" width="8.001" height="8"/>
	<rect x="13.999" y="1212.998" fill="#4CAF50" width="8.001" height="8"/>
	<rect x="25" y="1212.998" fill="#E91E63" width="8" height="8"/>
	<rect x="3" y="1212.998" fill="#FFC107" width="8.001" height="8"/>
	<rect x="13.999" y="1227" fill="#2196F3" width="8.001" height="8"/>
	<rect x="25" y="1227" fill="#E91E63" width="8" height="8"/>
	<rect x="3" y="1227" fill="#FFC107" width="8.001" height="8"/>
	<rect x="13.999" y="1249" fill="#4CAF50" width="8.001" height="8"/>
	<rect x="25" y="1249" fill="#E91E63" width="8" height="8"/>
	<rect x="3" y="1249" fill="#FFC107" width="8.001" height="8"/>
	<polygon fill="#2196F3" points="0.999,698 0.999,706 8.734,706.268 8.734,697.733 	"/>
	<polygon fill="#4CAF50" points="11.633,697.633 11.633,706.366 19.366,706.633 19.366,697.365 	"/>
	<polygon fill="#2196F3" points="22.268,706.735 30,707 30,697 22.268,697.266 	"/>
	<polygon fill="#2196F3" points="0.999,734 0.999,742 8.2,742.268 8.2,733.733 	"/>
	<polygon fill="#4CAF50" points="10.9,733.633 10.9,742.366 18.1,742.633 18.1,733.365 	"/>
	<polygon fill="#2196F3" points="20.801,742.735 28,743 28,733 20.801,733.266 	"/>
	<polygon fill="#2196F3" points="33,742 33,734 31.934,733.733 31.934,742.268 	"/>
	<polygon fill="#4CAF50" points="31.535,742.366 31.535,733.633 30.467,733.366 30.467,742.635 	"/>
	<polygon fill="#2196F3" points="30.066,733.266 29,733 29,743 30.066,742.735 	"/>
	<polygon fill="#2196F3" points="0.999,769.997 0.999,777.997 7.667,778.266 7.667,769.731 	"/>
	<polygon fill="#4CAF50" points="10.166,769.631 10.166,778.365 16.833,778.631 16.833,769.364 	"/>
	<polygon fill="#4CAF50" points="19.333,778.733 26,778.997 26,768.997 19.333,769.264 	"/>
	<polygon fill="#2196F3" points="33,777.997 33,769.997 31.4,769.731 31.4,778.266 	"/>
	<polygon fill="#4CAF50" points="30.801,778.365 30.801,769.631 29.197,769.365 29.197,778.633 	"/>
	<polygon fill="#2196F3" points="28.6,769.264 27,768.997 27,778.997 28.6,778.733 	"/>
	<polygon fill="#2196F3" points="2,806 2,814 8.135,814.268 8.135,805.733 	"/>
	<polygon fill="#4CAF50" points="10.434,805.633 10.434,814.366 16.568,814.633 16.568,805.365 	"/>
	<polygon fill="#4CAF50" points="18.867,814.735 25,815 25,805 18.867,805.266 	"/>
	<polygon fill="#2196F3" points="34,814 34,806 31.867,805.733 31.867,814.268 	"/>
	<polygon fill="#4CAF50" points="31.07,814.366 31.07,805.633 28.932,805.366 28.932,814.635 	"/>
	<polygon fill="#2196F3" points="28.133,805.266 26,805 26,815 28.133,814.735 	"/>
	<polygon fill="#2196F3" points="2,841.997 2,850 7.6,850.266 7.6,841.731 	"/>
	<polygon fill="#4CAF50" points="9.7,841.631 9.7,850.366 15.301,850.633 15.301,841.364 	"/>
	<polygon fill="#4CAF50" points="17.399,850.733 23,851 23,840.997 17.399,841.264 	"/>
	<polygon fill="#2196F3" points="34,850 34,841.997 31.334,841.731 31.334,850.266 	"/>
	<polygon fill="#4CAF50" points="30.338,850.365 30.338,841.631 27.664,841.365 27.664,850.633 	"/>
	<polygon fill="#2196F3" points="26.666,841.264 24,840.997 24,851 26.666,850.733 	"/>
	<polygon fill="#2196F3" points="2,877.997 2,886 7.067,886.266 7.067,877.733 	"/>
	<polygon fill="#4CAF50" points="8.967,877.633 8.967,886.366 14.034,886.633 14.034,877.365 	"/>
	<polygon fill="#4CAF50" points="15.932,886.733 21,887 21,876.997 15.932,877.266 	"/>
	<polygon fill="#2196F3" points="34,886 34,877.997 30.801,877.733 30.801,886.266 	"/>
	<polygon fill="#4CAF50" points="29.605,886.365 29.605,877.631 26.396,877.365 26.396,886.633 	"/>
	<polygon fill="#2196F3" points="25.199,877.266 22.001,876.997 22.001,887 25.199,886.733 	"/>
	<polygon fill="#2196F3" points="2,913.998 2,922 6.534,922.266 6.534,913.733 	"/>
	<polygon fill="#4CAF50" points="8.233,913.633 8.233,922.366 12.768,922.633 12.768,913.365 	"/>
	<polygon fill="#4CAF50" points="14.467,922.733 19,923 19,912.998 14.467,913.266 	"/>
	<polygon fill="#2196F3" points="34,922 34,913.998 30.268,913.733 30.268,922.266 	"/>
	<polygon fill="#4CAF50" points="28.873,922.365 28.873,913.631 25.129,913.365 25.129,922.633 	"/>
	<polygon fill="#2196F3" points="23.733,913.266 20.001,912.998 20.001,923 23.733,922.733 	"/>
	<polygon fill="#2196F3" points="2,949.998 2,958 6.268,958.266 6.268,949.733 	"/>
	<polygon fill="#4CAF50" points="7.866,949.633 7.866,958.366 12.135,958.633 12.135,949.365 	"/>
	<polygon fill="#4CAF50" points="13.732,958.733 18,959 18,948.998 13.732,949.266 	"/>
	<polygon fill="#2196F3" points="34,958 34,949.998 30.002,949.733 30.002,958.266 	"/>
	<polygon fill="#4CAF50" points="28.506,958.365 28.506,949.631 24.494,949.365 24.494,958.633 	"/>
	<polygon fill="#2196F3" points="23,949.266 19.001,948.998 19.001,959 23,958.733 	"/>
	<polygon fill="#2196F3" points="34,1246 34,1238 26.268,1237.733 26.268,1246.268 	"/>
	<polygon fill="#4CAF50" points="23.367,1246.366 23.367,1237.633 15.633,1237.366 15.633,1246.635 	"/>
	<polygon fill="#2196F3" points="12.734,1237.266 5,1237 5,1247 12.734,1246.735 	"/>
	<polygon fill="#2196F3" points="35,1209.998 35,1201.998 27.801,1201.731 27.801,1210.266 	"/>
	<polygon fill="#4CAF50" points="25.1,1210.365 25.1,1201.631 17.901,1201.365 17.901,1210.633 	"/>
	<polygon fill="#2196F3" points="15.201,1201.264 8,1200.998 8,1210.998 15.201,1210.733 	"/>
	<polygon fill="#2196F3" points="3,1201.998 3,1209.998 4.067,1210.266 4.067,1201.731 	"/>
	<polygon fill="#4CAF50" points="4.467,1201.631 4.467,1210.365 5.535,1210.631 5.535,1201.364 	"/>
	<polygon fill="#2196F3" points="5.934,1210.733 7,1210.998 7,1200.998 5.934,1201.264 	"/>
	<polygon fill="#2196F3" points="34,1174 34,1166 27.334,1165.733 27.334,1174.268 	"/>
	<polygon fill="#4CAF50" points="24.834,1174.366 24.834,1165.633 18.166,1165.366 18.166,1174.635 	"/>
	<polygon fill="#2196F3" points="15.668,1165.266 9,1165 9,1175 15.668,1174.735 	"/>
	<polygon fill="#2196F3" points="2,1166 2,1174 3.6,1174.268 3.6,1165.733 	"/>
	<polygon fill="#4CAF50" points="4.2,1165.633 4.2,1174.366 5.803,1174.633 5.803,1165.365 	"/>
	<polygon fill="#2196F3" points="6.401,1174.735 8,1175 8,1165 6.401,1165.266 	"/>
	<polygon fill="#2196F3" points="34,1138 34,1130 27.867,1129.733 27.867,1138.268 	"/>
	<polygon fill="#4CAF50" points="25.566,1138.366 25.566,1129.633 19.434,1129.366 19.434,1138.635 	"/>
	<polygon fill="#2196F3" points="17.135,1129.266 11,1129 11,1139 17.135,1138.735 	"/>
	<polygon fill="#2196F3" points="2,1130 2,1138 4.133,1138.268 4.133,1129.733 	"/>
	<polygon fill="#4CAF50" points="4.932,1129.633 4.932,1138.366 7.071,1138.633 7.071,1129.365 	"/>
	<polygon fill="#2196F3" points="7.867,1138.735 10,1139 10,1129 7.867,1129.266 	"/>
	<polygon fill="#2196F3" points="34,1102 34,1094 28.4,1093.733 28.4,1102.268 	"/>
	<polygon fill="#4CAF50" points="26.301,1102.366 26.301,1093.633 20.701,1093.366 20.701,1102.635 	"/>
	<polygon fill="#2196F3" points="18.602,1093.266 13,1093 13,1103 18.602,1102.735 	"/>
	<polygon fill="#2196F3" points="2,1094 2,1102 4.666,1102.268 4.666,1093.733 	"/>
	<polygon fill="#4CAF50" points="5.664,1093.633 5.664,1102.366 8.338,1102.633 8.338,1093.365 	"/>
	<polygon fill="#2196F3" points="9.334,1102.735 12,1103 12,1093 9.334,1093.266 	"/>
	<polygon fill="#2196F3" points="34,1066 34,1058 28.934,1057.733 28.934,1066.268 	"/>
	<polygon fill="#4CAF50" points="27.035,1066.366 27.035,1057.633 21.967,1057.366 21.967,1066.635 	"/>
	<polygon fill="#2196F3" points="20.069,1057.266 15,1057 15,1067 20.069,1066.735 	"/>
	<polygon fill="#2196F3" points="2,1058 2,1066 5.2,1066.268 5.2,1057.733 	"/>
	<polygon fill="#4CAF50" points="6.396,1057.633 6.396,1066.366 9.606,1066.633 9.606,1057.365 	"/>
	<polygon fill="#2196F3" points="10.801,1066.735 14,1067 14,1057 10.801,1057.266 	"/>
	<polygon fill="#2196F3" points="34,1030 34,1022 29.467,1021.733 29.467,1030.268 	"/>
	<polygon fill="#4CAF50" points="27.768,1030.366 27.768,1021.633 23.235,1021.366 23.235,1030.635 	"/>
	<polygon fill="#2196F3" points="21.535,1021.266 17,1021 17,1031 21.535,1030.735 	"/>
	<polygon fill="#2196F3" points="2,1022 2,1030 5.733,1030.268 5.733,1021.733 	"/>
	<polygon fill="#4CAF50" points="7.129,1021.633 7.129,1030.366 10.873,1030.633 10.873,1021.365 	"/>
	<polygon fill="#4CAF50" points="12.268,1030.735 16,1031 16,1021 12.268,1021.266 	"/>
	<polygon fill="#2196F3" points="34,994 34,986 29.732,985.733 29.732,994.268 	"/>
	<polygon fill="#4CAF50" points="28.135,994.366 28.135,985.633 23.867,985.366 23.867,994.635 	"/>
	<polygon fill="#2196F3" points="22.268,985.266 18,985 18,995 22.268,994.735 	"/>
	<polygon fill="#2196F3" points="2,986 2,994 6,994.268 6,985.733 	"/>
	<polygon fill="#4CAF50" points="7.494,985.633 7.494,994.366 11.506,994.633 11.506,985.365 	"/>
	<polygon fill="#4CAF50" points="13.002,994.735 17,995 17,985 13.002,985.266 	"/>
</g>
</svg>
