<?xml version="1.0" encoding="utf-8"?>
<!-- Generator: Adobe Illustrator 15.0.2, SVG Export Plug-In . SVG Version: 6.00 Build 0)  -->
<!DOCTYPE svg PUBLIC "-//W3C//DTD SVG 1.1//EN" "http://www.w3.org/Graphics/SVG/1.1/DTD/svg11.dtd">
<svg version="1.1" id="Calque_1" xmlns="http://www.w3.org/2000/svg" xmlns:xlink="http://www.w3.org/1999/xlink" x="0px" y="0px"
	 width="36px" height="288px" viewBox="0 0 36 288" enable-background="new 0 0 36 288" xml:space="preserve">
<g>
	<g id="notifications">
		<path fill="#FFC107" d="M17.959,33.673c1.753,0,3.185-1.411,3.185-3.137h-6.371C14.772,32.262,16.214,33.673,17.959,33.673z
			 M28.313,24.266v-8.619c0-4.86-3.348-8.779-7.963-9.875V4.675c0-1.252-1.11-2.349-2.392-2.349c-1.271,0-2.389,1.097-2.389,2.348
			v1.098c-4.618,1.096-7.956,5.015-7.956,9.875v8.619L4.429,27.4v1.57h27.069V27.4L28.313,24.266z"/>
	</g>
	<g id="notifications_1_">
		<path fill="#FFC107" d="M22.024,69.121c1.682-0.452,2.703-2.184,2.262-3.854l-6.16,1.652
			C18.578,68.586,20.331,69.578,22.024,69.121z M29.581,57.361l-2.229-8.329c-1.26-4.695-5.506-7.61-10.241-7.476l-0.288-1.06
			c-0.327-1.212-1.688-1.981-2.92-1.655c-1.229,0.331-2.023,1.678-1.696,2.889l0.288,1.061c-4.18,2.256-6.396,6.904-5.141,11.6
			l2.229,8.33l-2.263,3.853l0.402,1.512l26.154-7.006l-0.412-1.519L29.581,57.361z"/>
	</g>
	<g id="notifications_2_">
		<path fill="#FFC107" d="M25.882,102.38c1.508-0.873,2.053-2.817,1.191-4.31l-5.525,3.184
			C22.41,102.748,24.361,103.262,25.882,102.38z M30.142,89.063l-4.313-7.469c-2.428-4.207-7.282-5.93-11.83-4.57l-0.553-0.945
			c-0.618-1.092-2.138-1.479-3.237-0.846c-1.111,0.642-1.523,2.144-0.895,3.233l0.543,0.947c-3.452,3.259-4.387,8.321-1.959,12.532
			l4.313,7.469l-1.191,4.301l0.787,1.355L35.25,91.54l-0.786-1.354L30.142,89.063z"/>
	</g>
	<g id="notifications_3_">
		<path fill="#FFC107" d="M22.503,141.121c1.691-0.455,2.715-2.188,2.264-3.852l-6.15,1.65
			C19.058,140.586,20.812,141.58,22.503,141.121z M30.071,129.363l-2.229-8.328c-1.261-4.691-5.507-7.611-10.252-7.477l-0.277-1.06
			c-0.326-1.218-1.688-1.985-2.92-1.656c-1.229,0.331-2.022,1.683-1.695,2.892l0.277,1.061c-4.18,2.255-6.389,6.902-5.14,11.594
			l2.239,8.329l-2.271,3.853l0.412,1.518l26.145-7.007l-0.402-1.517L30.071,129.363z"/>
	</g>
	<g id="notifications_4_">
		<path fill="#FFC107" d="M18.539,177.674c1.743,0,3.187-1.416,3.187-3.143h-6.371C15.354,176.258,16.786,177.674,18.539,177.674z
			 M28.886,168.273v-8.623c0-4.855-3.338-8.774-7.955-9.883v-1.095c0-1.249-1.119-2.346-2.39-2.346c-1.28,0-2.391,1.097-2.391,2.344
			v1.108c-4.617,1.096-7.964,5.002-7.964,9.867v8.615L5,171.4v1.566h27.068l0.002-1.564L28.886,168.273z"/>
	</g>
	<g id="notifications_5_">
		<path fill="#FFC107" d="M14.476,213.119c1.69,0.457,3.447-0.537,3.896-2.199l-6.158-1.652
			C11.771,210.941,12.783,212.674,14.476,213.119z M26.915,206.727l2.229-8.33c1.259-4.699-0.961-9.348-5.137-11.605l0.287-1.049
			c0.327-1.219-0.467-2.568-1.697-2.9c-1.229-0.318-2.592,0.449-2.918,1.654l-0.287,1.063c-4.748-0.135-8.983,2.785-10.241,7.473
			l-2.229,8.332l-3.886,2.197l-0.414,1.518l26.155,7.008l0.402-1.506L26.915,206.727z"/>
	</g>
	<g id="notifications_6_">
		<path fill="#FFC107" d="M10.618,246.371c1.52,0.881,3.473,0.379,4.322-1.115l-5.516-3.186
			C8.563,243.566,9.097,245.498,10.618,246.371z M24.288,243.408l4.313-7.469c2.428-4.209,1.492-9.27-1.957-12.527l0.541-0.951
			c0.631-1.092,0.219-2.594-0.894-3.229c-1.103-0.637-2.62-0.252-3.237,0.836l-0.554,0.955c-4.55-1.359-9.401,0.361-11.829,4.563
			l-4.313,7.469l-4.322,1.123l-0.787,1.357l23.443,13.541l0.787-1.357L24.288,243.408z"/>
	</g>
	<g id="notifications_7_">
		<path fill="#FFC107" d="M13.995,285.119c1.689,0.457,3.438-0.537,3.887-2.201l-6.148-1.65
			C11.28,282.932,12.302,284.674,13.995,285.119z M26.425,278.715l2.229-8.318c1.258-4.701-0.951-9.348-5.128-11.605l0.277-1.049
			c0.328-1.221-0.467-2.568-1.697-2.9c-1.229-0.318-2.592,0.449-2.918,1.654l-0.276,1.063c-4.748-0.135-8.993,2.785-10.252,7.473
			l-2.229,8.332l-3.886,2.197l-0.403,1.516l26.143,7.008l0.402-1.518L26.425,278.715z"/>
	</g>
	<rect fill="#607D8B" fill-opacity="0" width="36" height="288"/>
</g>
</svg>
